<svg xmlns="http://www.w3.org/2000/svg" viewBox="0 0 512 512"><path d="M399.983 501.981H65.995c-30.926 0-55.996-25.07-55.996-55.996V10.019h389.994" fill="#fff"/><path d="M489.886 42.349c-16.153-16.153-42.341-16.153-58.494 0L258.548 215.193l58.494 58.494 172.845-172.845c16.151-16.152 16.151-42.34-.001-58.493z" fill="#f5b955"/><path fill="#d7d7e6" d="M361.83 226.309l-52.494-52.494-9.961.551-40.827 40.827 58.493 58.494 44.789-44.79z"/><path d="M317.027 273.672l-58.464-58.464c-27.546-7.339-58.146-.208-79.753 21.399-46.207 46.207-2.416 84.376-31.497 148.314 65.345 10.579 116.055.762 148.314-31.497 21.608-21.607 28.739-52.206 21.4-79.752z" fill="#e8ab82"/><path d="M295.626 353.425c.231-.231.452-.469.68-.703-1.165.179-41.538 5.98-63.34-46.124-26.424-63.15-70.867-37.121-70.867-37.121l-3.311-.303c-9.268 33.592 10.578 67.259-11.476 115.747 65.346 10.579 116.057.762 148.314-31.496z" fill="#ff5a5a"/><path d="M75.161 501.981h330.631c30.926 0 55.996-25.07 55.996-55.996H121.991c0 30.926-25.07 55.996-55.996 55.996" fill="#9bbeff"/><path d="M496.956 35.279c-20.025-20.025-52.608-20.024-72.634 0l-1.512 1.511-.005.005-.01.01-44.12 44.12-.005.005-.01.01-123.272 123.273c-30.172-6-61.756 3.433-83.649 25.324-28.553 28.553-26.538 55.759-24.59 82.069 1.551 20.939 3.154 42.592-8.937 69.176a10 10 0 007.504 14.011c17.396 2.816 33.728 4.222 48.975 4.222 46.161 0 82.372-12.885 108.006-38.518.146-.146.284-.296.428-.443.271-.252.529-.517.77-.796 21.028-21.833 30.014-52.797 24.126-82.409l168.935-168.935C506.656 98.212 512 85.315 512 71.596s-5.344-26.617-15.044-36.317zm-65.738 110.089c-9.838-12.512-15.191-27.832-15.191-43.975 0-19.048 7.429-36.968 20.92-50.458l1.517-1.517a31.754 31.754 0 012.197-1.998c-2.689 24.401 4.569 48.878 20.464 68.04l-29.907 29.908zm-14.229 14.23l-29.905 29.905c-9.838-12.512-15.191-27.832-15.191-43.975 0-19.047 7.428-36.965 20.917-50.455l3.789-3.789a92.628 92.628 0 00-.57 10.109c0 21.492 7.391 41.854 20.96 58.205zm-44.134 44.134l-9.729 9.729-44.352-44.352 33.69-33.69a92.614 92.614 0 00-.57 10.109c0 21.492 7.392 41.853 20.961 58.204zm-68.223-20.48l44.352 44.352-31.942 31.942-44.352-44.352 31.942-31.942zM161.296 376.828c8.83-25.735 7.23-47.336 5.798-66.699-.875-11.814-1.632-22.123-.073-31.955.044-.025.089-.043.133-.069.121-.071 12.506-6.971 26.356-2.348 12.121 4.049 22.293 15.723 30.234 34.699 12.804 30.6 31.909 43.202 45.682 48.384.833.314 1.654.598 2.468.868-26.925 17.176-63.977 22.924-110.598 17.12zm130.379-33.799c-8.688.036-33.979-3.239-49.484-40.291-10.265-24.533-24.513-39.992-42.348-45.949-8.468-2.828-16.488-3.032-23.248-2.157 2.503-3.588 5.552-7.221 9.285-10.955 17.644-17.644 43.323-24.969 67.578-19.434l54.532 54.533c5.194 22.774-.945 46.8-16.315 64.253zm191.14-249.258l-7.469 7.469c-13.538-17.223-18.406-39.573-13.142-60.968 7.789.38 15.058 3.594 20.61 9.147 5.925 5.924 9.187 13.799 9.187 22.175s-3.262 16.254-9.186 22.177zM399.983 265.999c2.63 0 5.21-1.07 7.068-2.93a10.076 10.076 0 002.931-7.069c0-2.63-1.07-5.21-2.931-7.069a10.071 10.071 0 00-7.068-2.93c-2.63 0-5.21 1.07-7.069 2.93a10.075 10.075 0 00-2.93 7.069c0 2.63 1.069 5.21 2.93 7.069a10.073 10.073 0 007.069 2.93zM195.767 68.014c-2.63 0-5.21-1.07-7.068-2.93a10.076 10.076 0 01-2.931-7.069c0-2.63 1.07-5.21 2.931-7.069a10.071 10.071 0 017.068-2.93c2.63 0 5.21 1.07 7.069 2.93 1.86 1.86 2.93 4.44 2.93 7.069 0 2.63-1.069 5.21-2.93 7.069a10.073 10.073 0 01-7.069 2.93z"/><path d="M461.787 435.986h-51.806V296.997c0-5.523-4.478-9.999-9.999-9.999-5.522 0-9.999 4.477-9.999 9.999v138.989H121.991c-5.522 0-9.999 4.477-9.999 9.999 0 25.362-20.634 45.996-45.996 45.996S20 471.347 20 445.985V68.014h133.711c5.522 0 9.999-4.477 9.999-9.999s-4.478-9.999-9.999-9.999H19.998V20.018h369.995v10.217c0 5.523 4.478 9.999 9.999 9.999 5.522 0 9.999-4.477 9.999-9.999V10.019c0-5.523-4.478-9.999-9.999-9.999H9.999C4.478.02 0 4.496 0 10.019v435.967c0 35.266 27.804 64.16 62.642 65.911.427.055.861.084 1.303.084h341.846c36.39 0 65.995-29.605 65.995-65.995 0-5.523-4.477-10-9.999-10zm-55.996 55.996H113.276c9.373-9.632 15.838-22.11 17.958-35.997h319.459c-4.579 20.569-22.973 35.997-44.902 35.997z"/></svg>